<?xml version="1.0" standalone="no"?>
<!DOCTYPE svg PUBLIC "-//W3C//DTD SVG 20010904//EN"
 "http://www.w3.org/TR/2001/REC-SVG-20010904/DTD/svg10.dtd">
<svg version="1.0" xmlns="http://www.w3.org/2000/svg"
 width="16.000000pt" height="16.000000pt" viewBox="0 0 16.000000 16.000000"
 preserveAspectRatio="xMidYMid meet">
<metadata>
Created by potrace 1.11, written by Peter Selinger 2001-2013
</metadata>
<g transform="translate(0.000000,16.000000) scale(0.002564,-0.002564)"
fill="#000000" stroke="none">
<path d="M2583 6104 c-533 -72 -1052 -319 -1438 -684 -299 -282 -528 -591
-720 -970 -168 -332 -230 -531 -282 -900 -22 -159 -25 -603 -4 -760 79 -613
309 -1149 693 -1610 184 -221 384 -400 636 -567 376 -250 781 -406 1222 -468
95 -14 178 -16 465 -13 386 5 434 11 713 83 368 97 756 292 1077 542 366 285
706 729 892 1162 171 401 253 807 253 1252 0 279 -35 548 -111 850 -169 675
-485 1233 -979 1729 -172 173 -299 270 -354 270 -54 0 -26 -263 70 -640 60
-238 76 -353 77 -550 0 -177 -10 -268 -50 -425 -73 -292 -245 -620 -408 -778
-249 -243 -638 -451 -975 -521 -500 -105 -942 30 -1338 409 -207 198 -317 371
-387 612 -72 245 -73 562 -5 813 27 98 126 297 191 383 167 221 404 387 699
488 l125 43 145 0 c350 -1 653 -116 865 -329 186 -185 287 -435 286 -705 -2
-473 -412 -880 -886 -880 -188 0 -402 103 -528 255 -141 168 -187 398 -132
644 51 223 340 420 558 382 127 -22 258 -116 309 -220 29 -60 36 -164 15 -225
-36 -106 -116 -180 -226 -213 -74 -21 -161 -7 -263 45 -44 22 -78 34 -78 28 0
-18 54 -98 86 -128 68 -63 222 -106 342 -95 88 9 190 57 246 117 81 87 116
187 116 335 0 254 -142 429 -415 511 -84 25 -284 25 -379 0 -138 -37 -229 -88
-334 -190 -96 -92 -175 -217 -224 -356 -26 -71 -35 -275 -19 -392 44 -299 216
-545 476 -675 210 -106 535 -145 728 -88 165 48 282 106 421 208 265 195 419
458 456 775 29 243 -54 625 -182 850 -165 288 -443 484 -826 583 -108 28 -123
29 -315 28 -111 -1 -248 -7 -304 -15z"/>
</g>
</svg>
